<svg id="my-svg" data-v-70b83f88="" version="1.0" xmlns="http://www.w3.org/2000/svg" xmlns:xlink="http://www.w3.org/1999/xlink" width="100%" height="100%" viewBox="0 0 340.000000 250.000000" preserveAspectRatio="xMidYMid meet" color-interpolation-filters="sRGB" style="margin: auto;/* background-color: #000; */">   <g data-v-70b83f88="" fill="#333333" class="icon-text-wrapper icon-svg-group iconsvg" transform="translate(81.26493835449219,46.953758239746094)"><g class="iconsvg-imagesvg" transform="translate(37.73506164550781,0)" mask="url(#c3432597-d1c3-465b-b5a6-8abd092246e1)"><g><rect fill="#333333" fill-opacity="0" stroke-width="2" x="0" y="0" width="102.00000000000001" height="100.55998107106238" class="image-rect"></rect> <svg filter="url(#colors9230895151)" x="0" y="0" width="102.00000000000001" height="100.55998107106238" filtersec="colorsf2822190980" class="image-svg-svg primary" style="overflow: visible;"><svg xmlns="http://www.w3.org/2000/svg" xmlns:xlink="http://www.w3.org/1999/xlink" version="1.1" x="0px" y="0px" viewBox="7.499999523162842 8.100000381469727 85 83.79999542236328" xml:space="preserve"><title>98all</title><path d="M92.5,39.1c0-6.1-4.6-11.1-10.5-11.7V10.1c0-0.7-0.4-1.4-1-1.7c-0.6-0.4-1.4-0.4-2,0  c-0.3,0.2-26.8,15.3-39,15.3H13.9c-3.6,0-6.4,2.9-6.4,6.4v22.2c0,3.4,2.7,6.2,6,6.4L23,88.2c0.6,2.2,2.5,3.7,4.6,3.7  c0.2,0,0.4,0,0.7,0c4.3-0.4,8.3-1.6,11-3.4c0.5-0.2,1.1-0.6,1.7-1.2c0.1-0.1,0.1-0.2,0.2-0.3c1.6-2.2,1.6-5.1,0-7.4  c-1.2-1.9-4.4-9.5-4.5-21h3.4C53.1,58.7,78.8,73.8,79,74c0.3,0.2,0.7,0.3,1,0.3c0.3,0,0.7-0.1,1-0.3c0.6-0.4,1-1,1-1.7V50.8  C87.9,50.2,92.5,45.2,92.5,39.1z M78,68.8c-7-3.9-24.4-13-36-14v-0.1V27.6v-0.1c11.1-1.1,28.9-10.2,36-14v13.9v4v15.5v4V68.8z"></path></svg></svg> <defs><filter id="colors9230895151"><feColorMatrix type="matrix" values="0 0 0 0 0.19921875  0 0 0 0 0.19921875  0 0 0 0 0.19921875  0 0 0 1 0" class="icon-fecolormatrix"></feColorMatrix></filter> <filter id="colorsf2822190980"><feColorMatrix type="matrix" values="0 0 0 0 0.99609375  0 0 0 0 0.99609375  0 0 0 0 0.99609375  0 0 0 1 0" class="icon-fecolormatrix"></feColorMatrix></filter> <filter id="colorsb6131066347"><feColorMatrix type="matrix" values="0 0 0 0 0  0 0 0 0 0  0 0 0 0 0  0 0 0 1 0" class="icon-fecolormatrix"></feColorMatrix></filter></defs></g><rect v-gra="id" width="114" height="112.55998229980469" transform="translate(-6, -6)" style="pointer-events:none;" fill="url(#83ec1Geou69K4rRrxb6sy)"></rect></g> <g transform="translate(0,107.55998229980469)"><g data-gra="path-name" fill-rule="" class="tp-name iconsvg-namesvg" transform="translate(0,0)"><g transform="scale(1)"><g><path d="M19.62-29.14L19.62-29.14 31.22-29.14Q32.38-29.14 32.94-28.23 33.5-27.32 33.4-25.03L33.4-25.03Q33.08-19.27 32.1-18.07L32.1-18.07Q31.43-17.23 30.52-16.98 29.6-16.73 27.91-16.73L27.91-16.73Q25.8-16.8 25.45-18.6L25.45-18.6Q25.45-18.63 25.45-18.63L25.45-18.63 25.42-18.7Q25.1-19.48 25.44-19.88 25.77-20.29 26.75-20.21L26.75-20.21 27.6-20.21Q28.27-20.21 28.65-20.6L28.65-20.6Q29.14-21.38 29.32-24.12L29.32-24.12Q29.36-24.96 29.18-25.28 29-25.59 28.55-25.59L28.55-25.59 25.63-25.59Q24.61-19.97 21.27-17.05L21.27-17.05Q20.53-16.49 19.69-16.51 18.84-16.52 18.14-17.12L18.14-17.12Q18-17.23 17.79-17.4 17.58-17.58 17.44-17.68L17.44-17.68 17.44-16.73Q17.44-16.03 16.7-16.03L16.7-16.03 12.3-16.03 12.3-12.09 15.15-12.09Q16.98-12.09 16.98-10.27L16.98-10.27Q16.98-8.4 15.15-8.4L15.15-8.4 12.3-8.4 12.3-2.71Q14.84-1.86 19.58-1.86L19.58-1.86Q20.92-1.83 25.22-1.85 29.53-1.86 32.38-1.93L32.38-1.93Q33.89-1.97 34.24-1.41 34.59-0.84 34.03 0.6L34.03 0.6Q33.43 2.21 31.46 2.21L31.46 2.21 19.58 2.21Q14.24 2.21 11.07 1.2 7.91 0.18 5.87-2.71L5.87-2.71Q5.59-0.81 4.92 1.27L4.92 1.27Q4.57 2.25 4.01 2.44 3.45 2.64 2.5 2.14L2.5 2.14Q1.58 1.65 1.35 1.18 1.13 0.7 1.48-0.25L1.48-0.25Q2.74-3.87 2.92-11.99L2.92-11.99Q2.95-13.01 3.46-13.55 3.97-14.1 4.89-14.06L4.89-14.06Q6.68-13.96 6.61-12.2L6.61-12.2Q6.61-12.13 6.5-9.07L6.5-9.07Q7.28-6.68 8.54-5.27L8.54-5.27 8.54-16.03 3.69-16.03Q1.83-16.03 1.83-17.93L1.83-17.93Q1.83-19.79 3.69-19.79L3.69-19.79 7.84-19.79 7.84-23.1 4.46-23.1Q2.64-23.1 2.64-25L2.64-25Q2.64-26.82 4.46-26.82L4.46-26.82 7.84-26.82 7.84-28.51Q7.84-30.45 9.84-30.45L9.84-30.45Q11.78-30.45 11.78-28.51L11.78-28.51 11.78-26.82 14.98-26.82Q16.8-26.82 16.8-25L16.8-25Q16.8-23.1 14.98-23.1L14.98-23.1 11.78-23.1 11.78-19.79 16.63-19.79Q17.44-19.79 17.44-19.02L17.44-19.02 17.44-18.91Q20.74-20.99 21.66-25.59L21.66-25.59 19.62-25.59Q17.86-25.59 17.86-27.39L17.86-27.39Q17.86-29.14 19.62-29.14ZM27.63-11.95L27.63-11.95 23.63-11.95Q22.75-11.95 22.75-11.07L22.75-11.07 22.75-8.37Q22.75-7.49 23.63-7.49L23.63-7.49 27.63-7.49Q28.51-7.49 28.51-8.37L28.51-8.37 28.51-11.07Q28.51-11.95 27.63-11.95ZM30.38-4.08L30.38-4.08 21.13-4.08Q20.07-4.08 19.44-4.71 18.81-5.34 18.81-6.4L18.81-6.4 18.81-13.08Q18.81-14.13 19.44-14.77 20.07-15.4 21.13-15.4L21.13-15.4 30.38-15.4Q31.43-15.4 32.08-14.77 32.73-14.13 32.73-13.08L32.73-13.08 32.73-6.4Q32.73-5.34 32.08-4.71 31.43-4.08 30.38-4.08ZM41.13-7.03L41.13-7.03Q40.99-7 40.71-6.87 40.43-6.75 40.29-6.71L40.29-6.71Q39.23-6.22 38.69-6.43 38.14-6.64 37.79-7.73L37.79-7.73Q37.44-8.75 37.65-9.35 37.86-9.95 38.78-10.51L38.78-10.51Q39.38-11.07 40.08-11.92L40.08-11.92Q41.03-12.94 43-15.82L43-15.82Q42.54-15.75 41.71-15.64 40.89-15.54 40.57-15.5 40.25-15.47 39.71-15.45 39.16-15.43 38.94-15.5 38.71-15.57 38.39-15.71 38.07-15.86 37.9-16.14 37.72-16.42 37.58-16.8L37.58-16.8Q37.48-17.51 37.41-17.86 37.34-18.21 37.6-18.74 37.86-19.27 38-19.49 38.14-19.72 38.53-20.2 38.92-20.67 39.06-20.88L39.06-20.88Q40.71-23.27 42.71-28.05L42.71-28.05Q43.14-29.21 43.93-29.71 44.72-30.2 45.7-29.74L45.7-29.74Q47.57-28.86 46.72-27L46.72-27Q44.61-22.61 42.15-19.23L42.15-19.23 45.28-19.48Q45.63-20.04 46.41-21.41L46.41-21.41Q47.43-23.34 49.18-22.18L49.18-22.18Q50.8-21.2 49.82-19.44L49.82-19.44Q47.39-15.47 44.68-11.95L44.68-11.95 47.71-12.73Q49.82-13.32 49.92-11.29L49.92-11.29Q49.96-10.51 49.31-9.91 48.66-9.32 47.74-9.04L47.74-9.04Q42.29-7.42 41.13-7.03ZM65.14-15.4L65.14-15.4 60.61-15.4Q60.01-15.4 59.75-15.71 59.48-16.03 59.63-16.49L59.63-16.49Q61.35-22.75 61.73-24.29L61.73-24.29 58.15-24.29Q58.01-21.41 57.52-16.66L57.52-16.66Q59.27-11.64 62.02-7.95L62.02-7.95Q63.95-11.04 65.14-15.4ZM52.49-28.3L52.49-28.3 64.27-28.3Q65.46-28.3 66.01-27.6 66.55-26.89 66.27-25.77L66.27-25.77Q65.6-22.85 64.51-19.09L64.51-19.09 67.36-19.09Q68.55-19.09 69.08-18.33 69.61-17.58 69.33-16.1L69.33-16.1Q67.82-9.53 64.76-4.78L64.76-4.78Q66.45-3.09 68.55-1.79L68.55-1.79Q69.82-1.09 70.03-0.35 70.24 0.39 69.4 1.48L69.4 1.48Q68.2 2.95 66.38 1.9L66.38 1.9Q63.88 0.28 62.23-1.48L62.23-1.48Q60.4 0.53 58.22 2.04L58.22 2.04Q57.34 2.6 56.64 2.55 55.93 2.5 55.23 1.76L55.23 1.76Q54.32 0.67 54.51-0.05 54.7-0.77 55.97-1.55L55.97-1.55Q57.97-2.99 59.52-4.64L59.52-4.64Q57.83-7.03 56.43-9.67L56.43-9.67Q55.13-3.06 52.35 1.44L52.35 1.44Q51.64 2.43 50.98 2.55 50.31 2.67 49.32 2L49.32 2Q48.27 1.23 48.18 0.44 48.09-0.35 48.9-1.41L48.9-1.41Q49.39-2.14 50.03-3.38L50.03-3.38Q47.85-2.39 40.64 0.63L40.64 0.63Q39.52 1.05 38.95 0.7 38.39 0.35 38.11-0.84L38.11-0.84Q37.86-1.83 38.09-2.39 38.32-2.95 39.23-3.27L39.23-3.27Q43.17-4.71 47.29-6.29L47.29-6.29Q48.48-6.75 49.27-6.36 50.06-5.98 50.34-4.85L50.34-4.85 50.48-4.29Q53.4-10.93 54-24.29L54-24.29 52.49-24.29Q50.52-24.29 50.52-26.33L50.52-26.33Q50.52-28.3 52.49-28.3ZM91.79-20.85L91.79-20.85 103.64-20.85Q105.86-20.85 105.86-18.63 105.86-16.42 103.64-16.42L103.64-16.42 93.27-16.42Q96.36-7 103.54-2.57L103.54-2.57Q105.08-1.76 105.42-0.9 105.75-0.04 104.8 1.34L104.8 1.34Q103.46 3.02 101.21 1.83L101.21 1.83Q93.97-2.6 90.11-12.23L90.11-12.23Q87.22-3.13 79.24 1.72L79.24 1.72Q76.75 3.02 75.45 1.55L75.45 1.55Q73.62-0.56 77.06-2.46L77.06-2.46Q84.45-7.21 86.55-16.42L86.55-16.42 76.46-16.42Q74.29-16.42 74.29-18.63 74.29-20.85 76.46-20.85L76.46-20.85 87.26-20.85Q87.57-23.77 87.57-28.3L87.57-28.3Q87.61-30.45 89.89-30.45L89.89-30.45Q91.09-30.45 91.65-29.92 92.21-29.39 92.18-28.27L92.18-28.27Q92.11-23.73 91.79-20.85ZM115.77-11.04L115.77-11.04 115.77-22.57Q115.77-23.45 114.93-23.45L114.93-23.45 114.57-23.45Q113.73-23.45 113.73-22.57L113.73-22.57 113.73-11.04Q113.73-10.2 114.57-10.2L114.57-10.2 114.93-10.2Q115.77-10.2 115.77-11.04ZM112.89-27.35L112.89-27.35 116.89-27.35Q117.77-27.35 118.32-26.82 118.86-26.3 118.86-25.38L118.86-25.38 118.86-8.61Q118.86-7.56 118.23-6.91 117.6-6.26 116.54-6.26L116.54-6.26 112.89-6.26Q111.83-6.26 111.2-6.91 110.57-7.56 110.57-8.61L110.57-8.61 110.57-25.03Q110.57-26.09 111.2-26.72 111.83-27.35 112.89-27.35ZM123.68-12.94L124.45-12.94 124.45-18 123.5-18Q122.84-18 122.84-17.33L122.84-17.33 122.84-13.78Q122.84-12.94 123.68-12.94L123.68-12.94ZM127.97-18L127.16-18 127.16-12.94 128.11-12.94Q128.85-12.94 128.85-13.64L128.85-13.64 128.85-17.12Q128.85-18 127.97-18L127.97-18ZM131.7-19.13L131.7-19.13 131.7-12.27Q131.7-11.21 131.04-10.58 130.39-9.95 129.34-9.95L129.34-9.95 127.65-9.95 127.65-9.81Q128.99-8.65 131.73-6.08L131.73-6.08Q132.36-5.38 132.33-4.94 132.29-4.5 131.66-3.73L131.66-3.73Q130.89-2.81 130.27-2.83 129.66-2.85 128.95-3.83L128.95-3.83Q128.74-4.11 128.27-4.69 127.79-5.27 127.65-5.45L127.65-5.45 127.65 1.3Q127.65 3.13 125.82 3.13 124 3.13 124 1.3L124 1.3 124-4.46Q122.34-1.65 120.83 0.11L120.83 0.11Q119.92 1.02 119.3 0.91 118.69 0.81 118.09-0.35L118.09-0.35Q117.32-1.93 118.69-3.13L118.69-3.13Q121.57-5.94 123.5-9.95L123.5-9.95 121.68-9.95Q120.94-9.95 120.52-10.37 120.09-10.79 120.09-11.53L120.09-11.53 120.09-18.67Q120.09-19.72 120.74-20.37 121.39-21.02 122.45-21.02L122.45-21.02 124-21.02 124-23.2 121.46-23.2Q119.71-23.2 119.71-25L119.71-25Q119.71-26.75 121.46-26.75L121.46-26.75 124-26.75 124-28.48Q124-30.3 125.82-30.3 127.65-30.3 127.65-28.48L127.65-28.48 127.65-26.75 130.25-26.75Q132.01-26.75 132.01-25L132.01-25Q132.01-23.2 130.25-23.2L130.25-23.2 127.65-23.2 127.65-21.02 129.8-21.02Q130.68-21.02 131.19-20.51 131.7-20 131.7-19.13ZM133.07-8.54L133.07-8.54 133.07-25.24Q133.07-26.86 134.68-26.86 136.3-26.86 136.3-25.24L136.3-25.24 136.3-8.54Q136.3-6.93 134.68-6.93 133.07-6.93 133.07-8.54ZM141.5-28.05L141.5-28.05 141.5-1.44Q141.5 1.44 139.92 2.32L139.92 2.32Q139.04 2.78 137.85 2.99 136.65 3.2 135.49 2.87 134.33 2.53 133.98 1.55L133.98 1.55Q133.14-0.77 136.37-0.7L136.37-0.7 137.11-0.7Q137.85-0.74 137.85-1.48L137.85-1.48 137.85-28.05Q137.85-29.88 139.68-29.88 141.5-29.88 141.5-28.05ZM153.95-12.83L153.95-12.83 153.95-22.75Q153.95-23.63 153.07-23.63L153.07-23.63 151.45-23.63Q150.57-23.63 150.57-22.75L150.57-22.75 150.57-12.83Q150.57-11.95 151.45-11.95L151.45-11.95 153.07-11.95Q153.95-11.95 153.95-12.83ZM148.92-27.56L148.92-27.56 155.67-27.56Q156.73-27.56 157.36-26.93 157.99-26.3 157.99-25.24L157.99-25.24 157.99-10.34Q157.99-9.28 157.36-8.63 156.73-7.98 155.67-7.98L155.67-7.98 148.92-7.98Q147.87-7.98 147.23-8.63 146.6-9.28 146.6-10.34L146.6-10.34 146.6-25.24Q146.6-26.3 147.23-26.93 147.87-27.56 148.92-27.56ZM165.87-19.23L165.87-19.23Q165.16-11.95 163.28-6.86 161.4-1.76 157.71 1.69L157.71 1.69Q155.85 3.23 154.34 1.65L154.34 1.65Q153.39 0.6 153.47-0.19 153.56-0.98 154.72-1.83L154.72-1.83Q157.78-4.57 159.31-8.82 160.84-13.08 161.37-19.2L161.37-19.2Q161.44-20.39 162.09-21.18 162.74-21.97 163.79-21.94L163.79-21.94Q164.88-21.9 165.43-21.15 165.97-20.39 165.87-19.23ZM162.46-28.51L162.46-28.51 171.21-28.51Q172.27-28.51 172.92-27.83 173.57-27.14 173.6-25.88L173.6-25.88Q173.92-17.58 174.9-11.57 175.89-5.55 178.14-1.76L178.14-1.76Q178.88-0.56 178.7 0.05 178.52 0.67 177.33 1.58L177.33 1.58Q176.24 2.46 175.54 2.39 174.83 2.32 174.09 1.16L174.09 1.16Q171.74-3.2 170.74-9.51 169.73-15.82 169.42-24.5L169.42-24.5 162.46-24.5Q160.49-24.5 160.49-26.54L160.49-26.54Q160.49-28.51 162.46-28.51Z" transform="translate(-1.2650877237319946, 30.450000762939453)"></path></g> <!----> <!----> <!----> <!----> <!----> <!----> <!----></g></g> <g data-gra="path-slogan" fill-rule="" class="tp-slogan iconsvg-slogansvg" fill="#333333" transform="translate(5,39.58000183105469)"><rect x="0" height="1" y="3.9750003814697266" width="30.764236450195312"></rect> <rect height="1" y="3.9750003814697266" width="30.764236450195312" x="136.7058868408203"></rect> <g transform="translate(33.76423645019531,0)"><g transform="scale(1)"><path d="M7.17-6.09L7.17-6.09L6.09-6.09Q6-7.73 3.94-7.83L3.94-7.83Q2.02-7.78 2.02-6.33L2.02-6.33Q2.02-5.39 3.05-5.25L3.05-5.25L5.48-4.69Q7.41-4.22 7.41-2.34L7.41-2.34Q7.36 0.05 4.03 0.14L4.03 0.14Q2.20 0.14 1.45-0.61L1.45-0.61Q0.52-1.31 0.56-2.77L0.56-2.77L1.69-2.77Q1.73-0.80 4.03-0.75L4.03-0.75Q6.28-0.80 6.33-2.20L6.33-2.20Q6.52-3.38 4.45-3.75L4.45-3.75L2.67-4.13Q0.84-4.64 0.84-6.19L0.84-6.19Q0.98-8.72 3.84-8.81L3.84-8.81Q7.08-8.81 7.17-6.09ZM14.53-3.19L14.53-8.58L15.70-8.58L15.70-3.05Q15.56 0.05 12.19 0.14L12.19 0.14Q9.05 0.05 8.91-2.86L8.91-2.86L8.91-8.58L10.08-8.58L10.08-3.19Q10.13-0.84 12.23-0.80L12.23-0.80Q14.53-0.84 14.53-3.19L14.53-3.19ZM21.14-7.64L18.80-7.64L18.80-4.64L21.09-4.64Q22.88-4.64 22.88-6.19L22.88-6.19Q22.88-7.59 21.14-7.64L21.14-7.64ZM21.52-3.61L18.80-3.61L18.80 0L17.63 0L17.63-8.58L21.52-8.58Q23.95-8.48 24.05-6.19L24.05-6.19Q23.91-3.70 21.52-3.61L21.52-3.61ZM26.77-1.03L31.92-1.03L31.92 0L25.59 0L25.59-8.58L31.83-8.58L31.83-7.59L26.77-7.59L26.77-4.92L31.45-4.92L31.45-3.89L26.77-3.89L26.77-1.03ZM37.55-3.70L34.73-3.70L34.73 0L33.56 0L33.56-8.58L37.55-8.58Q40.41-8.58 40.41-6.28L40.41-6.28Q40.41-4.88 39.19-4.22L39.19-4.22Q40.22-3.94 40.22-2.58L40.22-2.58L40.31-1.03Q40.27-0.38 40.73-0.19L40.73-0.19L40.73 0L39.28 0Q39.14-0.61 39.09-2.16L39.09-2.16Q39.14-3.70 37.55-3.70L37.55-3.70ZM37.64-7.64L34.73-7.64L34.73-4.69L37.45-4.69Q39.19-4.69 39.19-6.19L39.19-6.19Q39.19-7.64 37.64-7.64L37.64-7.64ZM51.66-6.09L51.66-6.09L50.58-6.09Q50.48-7.73 48.42-7.83L48.42-7.83Q46.50-7.78 46.50-6.33L46.50-6.33Q46.50-5.39 47.53-5.25L47.53-5.25L49.97-4.69Q51.89-4.22 51.89-2.34L51.89-2.34Q51.84 0.05 48.52 0.14L48.52 0.14Q46.69 0.14 45.94-0.61L45.94-0.61Q45-1.31 45.05-2.77L45.05-2.77L46.17-2.77Q46.22-0.80 48.52-0.75L48.52-0.75Q50.77-0.80 50.81-2.20L50.81-2.20Q51-3.38 48.94-3.75L48.94-3.75L47.16-4.13Q45.33-4.64 45.33-6.19L45.33-6.19Q45.47-8.72 48.33-8.81L48.33-8.81Q51.56-8.81 51.66-6.09ZM57-7.64L54.66-7.64L54.66-4.64L56.95-4.64Q58.73-4.64 58.73-6.19L58.73-6.19Q58.73-7.59 57-7.64L57-7.64ZM57.38-3.61L54.66-3.61L54.66 0L53.48 0L53.48-8.58L57.38-8.58Q59.81-8.48 59.91-6.19L59.91-6.19Q59.77-3.70 57.38-3.61L57.38-3.61ZM62.63-1.03L67.78-1.03L67.78 0L61.45 0L61.45-8.58L67.69-8.58L67.69-7.59L62.63-7.59L62.63-4.92L67.31-4.92L67.31-3.89L62.63-3.89L62.63-1.03ZM74.95 0L74.11-2.48L70.64-2.48L69.75 0L68.58 0L71.81-8.58L73.13-8.58L76.22 0L74.95 0ZM72.38-7.31L71.02-3.52L73.69-3.52L72.42-7.31L72.38-7.31ZM79.78-4.31L78.42-3.05L78.42 0L77.25 0L77.25-8.58L78.42-8.58L78.42-4.41L82.59-8.58L84.23-8.58L80.63-5.11L84.33 0L82.78 0L79.78-4.31ZM86.53-1.03L91.69-1.03L91.69 0L85.36 0L85.36-8.58L91.59-8.58L91.59-7.59L86.53-7.59L86.53-4.92L91.22-4.92L91.22-3.89L86.53-3.89L86.53-1.03ZM97.31-3.70L94.50-3.70L94.50 0L93.33 0L93.33-8.58L97.31-8.58Q100.17-8.58 100.17-6.28L100.17-6.28Q100.17-4.88 98.95-4.22L98.95-4.22Q99.98-3.94 99.98-2.58L99.98-2.58L100.08-1.03Q100.03-0.38 100.50-0.19L100.50-0.19L100.50 0L99.05 0Q98.91-0.61 98.86-2.16L98.86-2.16Q98.91-3.70 97.31-3.70L97.31-3.70ZM97.41-7.64L94.50-7.64L94.50-4.69L97.22-4.69Q98.95-4.69 98.95-6.19L98.95-6.19Q98.95-7.64 97.41-7.64L97.41-7.64Z" transform="translate(-0.5602678571428572, 8.8125)"></path></g></g></g></g></g><defs v-gra="od"></defs><defs v-gra="id"><filter id="ba7466a1-49e0-4c27-a642-3437628f6ee6" filterUnits="userSpaceOnUse"><feColorMatrix type="matrix" values="0 0 0 0 0.99609375  0 0 0 0 0.99609375  0 0 0 0 0.99609375  0 0 0 1 0"></feColorMatrix></filter><linearGradient x1="0" y1="1" x2="0" y2="0" id="83ec1Geou69K4rRrxb6sy"><stop offset="0%" stop-color="#f5576c"></stop><stop offset="100%" stop-color="#f093fb"></stop></linearGradient><filter id="42443b3f1de60f6b6fd3b6a9844b4764" filterUnits="userSpaceOnUse"><feColorMatrix type="matrix" values="0 0 0 0 0.99609375  0 0 0 0 0.99609375  0 0 0 0 0.99609375  0 0 0 1 0"></feColorMatrix></filter></defs><mask v-gra="im" id="c3432597-d1c3-465b-b5a6-8abd092246e1"><g class="iconsvg-imagesvg" filter="url(#ba7466a1-49e0-4c27-a642-3437628f6ee6)"><g><rect fill="#333333" fill-opacity="0" stroke-width="2" x="0" y="0" width="102.00000000000001" height="100.55998107106238" class="image-rect"></rect> <svg x="0" y="0" width="102.00000000000001" height="100.55998107106238" filtersec="colorsf2822190980" class="image-svg-svg primary" style="overflow: visible;"><svg xmlns="http://www.w3.org/2000/svg" xmlns:xlink="http://www.w3.org/1999/xlink" version="1.1" x="0px" y="0px" viewBox="7.499999523162842 8.100000381469727 85 83.79999542236328" xml:space="preserve"><title>98all</title><path d="M92.5,39.1c0-6.1-4.6-11.1-10.5-11.7V10.1c0-0.7-0.4-1.4-1-1.7c-0.6-0.4-1.4-0.4-2,0  c-0.3,0.2-26.8,15.3-39,15.3H13.9c-3.6,0-6.4,2.9-6.4,6.4v22.2c0,3.4,2.7,6.2,6,6.4L23,88.2c0.6,2.2,2.5,3.7,4.6,3.7  c0.2,0,0.4,0,0.7,0c4.3-0.4,8.3-1.6,11-3.4c0.5-0.2,1.1-0.6,1.7-1.2c0.1-0.1,0.1-0.2,0.2-0.3c1.6-2.2,1.6-5.1,0-7.4  c-1.2-1.9-4.4-9.5-4.5-21h3.4C53.1,58.7,78.8,73.8,79,74c0.3,0.2,0.7,0.3,1,0.3c0.3,0,0.7-0.1,1-0.3c0.6-0.4,1-1,1-1.7V50.8  C87.9,50.2,92.5,45.2,92.5,39.1z M78,68.8c-7-3.9-24.4-13-36-14v-0.1V27.6v-0.1c11.1-1.1,28.9-10.2,36-14v13.9v4v15.5v4V68.8z"></path></svg></svg> <defs><filter id="colors9230895151"><feColorMatrix type="matrix" values="0 0 0 0 0.19921875  0 0 0 0 0.19921875  0 0 0 0 0.19921875  0 0 0 1 0" class="icon-fecolormatrix"></feColorMatrix></filter> <filter id="colorsf2822190980"><feColorMatrix type="matrix" values="0 0 0 0 0.99609375  0 0 0 0 0.99609375  0 0 0 0 0.99609375  0 0 0 1 0" class="icon-fecolormatrix"></feColorMatrix></filter> <filter id="colorsb6131066347"><feColorMatrix type="matrix" values="0 0 0 0 0  0 0 0 0 0  0 0 0 0 0  0 0 0 1 0" class="icon-fecolormatrix"></feColorMatrix></filter></defs></g></g></mask></svg>